<svg xmlns="http://www.w3.org/2000/svg" id="Layer_1" enable-background="new 0 0 64 64" viewBox="0 0 64 64"><path fill="#6c6ca6" d="M21.61,27.81c-3.51,0-6.36,2.86-6.36,6.37s2.85,6.36,6.36,6.36s6.37-2.85,6.37-6.36S25.13,27.81,21.61,27.81z
		 M21.61,38.61c-2.44,0-4.42-1.99-4.42-4.43s1.98-4.43,4.42-4.43s4.43,1.99,4.43,4.43S24.06,38.61,21.61,38.61z"/><path fill="#6c6ca6" d="M52.49,38.39v-1.53h0.06c0.53,0,0.97-0.43,0.97-0.97v-4.52c0-1.9-1.54-3.44-3.44-3.44H36.78v-2.9
		c0-0.01,0-0.01,0-0.02v-6.39c0-3.94-3.12-7.16-7.01-7.35V9.6h0.92c0.54,0,0.97-0.43,0.97-0.97V2.72c0-1.5-1.22-2.72-2.71-2.72H14.3
		c-1.5,0-2.72,1.22-2.72,2.72v5.91c0,0.54,0.44,0.97,0.97,0.97h0.92v1.67c-3.89,0.19-7,3.41-7,7.35V25c0,0.01,0,0.01,0,0.01
		c0,0.01,0,0.01,0,0.01V53.8c0,1.82,1.48,3.3,3.3,3.3h17.46v1c0,3.25,2.64,5.9,5.9,5.9h18.5c3.26,0,5.91-2.65,5.91-5.9V44.22
		C57.53,41.26,55.35,38.81,52.49,38.39z M35.81,29.87h14.28c0.83,0,1.5,0.67,1.5,1.5v3.55H33.17v-3.55c0-0.83,0.68-1.5,1.5-1.5h1.13
		C35.79,29.87,35.79,29.87,35.81,29.87z M50.56,36.86v1.45H34.19v-1.45H50.56z M13.52,2.72c0-0.43,0.35-0.78,0.78-0.78h14.65
		c0.42,0,0.77,0.35,0.77,0.78v4.94h-16.2V2.72z M27.83,9.6v1.65H15.4V9.6H27.83z M8.4,18.62c0-2.99,2.43-5.43,5.42-5.43h15.58
		c2.99,0,5.43,2.44,5.43,5.43v5.42H8.4V18.62z M27.23,55.16H9.77c-0.75,0-1.36-0.61-1.36-1.36v-9.49h18.82V55.16z M27.52,42.37H8.4
		V25.98h26.43v1.95h-0.17c-1.89,0-3.44,1.54-3.44,3.44v4.52c0,0.54,0.44,0.97,0.97,0.97h0.06v1.53
		C30.03,38.71,28.22,40.28,27.52,42.37z M55.6,58.1c0,2.18-1.78,3.96-3.97,3.96h-18.5c-2.19,0-3.96-1.78-3.96-3.96v-2.85H55.6V58.1z
		 M55.6,53.31H29.17v-4.3H55.6V53.31z M55.6,47.07H29.17v-2.85c0-2.19,1.77-3.97,3.96-3.97h18.5c2.19,0,3.97,1.78,3.97,3.97V47.07z"/><path fill="#eaeaea" d="M8.4,25.98v16.39h19.12c0.69-2.09,2.51-3.66,4.73-3.98v-1.53h-0.06c-0.53,0-0.97-0.43-0.97-0.97v-4.52
		c0-1.9,1.55-3.44,3.44-3.44h0.17v-1.95H8.4z M21.61,40.54c-3.51,0-6.36-2.85-6.36-6.36s2.85-6.37,6.36-6.37s6.37,2.86,6.37,6.37
		S25.13,40.54,21.61,40.54z"/><path fill="#cfd8ee" d="M26.05,34.18c0,2.44-1.99,4.43-4.43,4.43s-4.42-1.99-4.42-4.43s1.98-4.43,4.42-4.43S26.05,31.74,26.05,34.18z
		"/><path fill="#e6ecf5" d="M29.72 2.72v4.94h-16.2V2.72c0-.43.35-.78.78-.78h14.65C29.36 1.94 29.72 2.29 29.72 2.72zM34.83 18.62v5.42H8.4v-5.42c0-2.99 2.43-5.43 5.42-5.43h15.58C32.4 13.19 34.83 15.63 34.83 18.62zM27.23 44.31v10.85H9.77c-.75 0-1.36-.61-1.36-1.36v-9.49H27.23z"/><path fill="#e0e1e0" d="M15.26,34.18c0,3.51,2.85,6.36,6.36,6.36h0.01v1.83H8.4V25.98h13.22v1.83h-0.01
		C18.1,27.81,15.26,30.67,15.26,34.18z"/><path fill="#aeb1d5" d="M21.63,29.75v8.86h-0.01c-2.44,0-4.42-1.99-4.42-4.43s1.98-4.43,4.42-4.43H21.63z"/><path fill="#c8d5e4" d="M21.63 1.94v5.72h-8.11V2.72c0-.43.35-.78.78-.78H21.63zM21.63 13.19v10.85H8.4v-5.42c0-2.99 2.43-5.43 5.42-5.43H21.63zM21.63 44.31v10.85H9.77c-.75 0-1.36-.61-1.36-1.36v-9.49H21.63z"/><rect width="26.43" height="4.3" x="29.17" y="49.01" fill="#aeb1d5"/><path fill="#cfd8ee" d="M51.58 31.37v3.55H33.17v-3.55c0-.83.68-1.5 1.5-1.5h1.13c0 0 0 0 .01 0h14.28C50.92 29.87 51.58 30.54 51.58 31.37zM55.6 44.22v2.85H29.17v-2.85c0-2.19 1.77-3.97 3.96-3.97h18.5C53.81 40.25 55.6 42.03 55.6 44.22zM55.6 55.25v2.85c0 2.18-1.78 3.96-3.97 3.96h-18.5c-2.19 0-3.96-1.78-3.96-3.96v-2.85H55.6z"/><rect width="13.21" height="4.3" x="42.38" y="49.01" fill="#a3a9cd"/><path fill="#c3d0e8" d="M51.58 31.37v3.55h-9.2v-5.05h7.7C50.92 29.87 51.58 30.54 51.58 31.37zM55.6 44.22v2.85H42.38v-6.82h9.24C53.81 40.25 55.6 42.03 55.6 44.22zM55.6 55.25v2.85c0 2.18-1.78 3.96-3.97 3.96h-9.24v-6.81H55.6z"/></svg>