<svg xmlns="http://www.w3.org/2000/svg" enable-background="new 0 0 200 200" viewBox="0 0 200 200"><path fill-rule="evenodd" d="M179.7,100c-8.4-50.7-43.9-92-79.2-92c-35.3,0-70.8,41.3-79.2,92c-4.2,24.3,1.5,47.2,16.1,64.5
		c14.9,17.7,37.3,27.5,63,27.5s48.1-9.8,63-27.5C178.1,147.2,183.9,124.3,179.7,100z M159.7,161.3c-14,16.6-35,25.7-59.2,25.7
		c-24.2,0-45.2-9.1-59.2-25.7c-13.6-16.2-18.9-37.6-15-60.5c8-48.4,41.3-87.8,74.2-87.8s66.3,39.4,74.2,87.8
		C178.7,123.6,173.3,145.1,159.7,161.3z" clip-rule="evenodd"/><circle cx="45.5" cy="134.5" r="2.5" fill-rule="evenodd" clip-rule="evenodd"/><circle cx="61.5" cy="162.5" r="2.5" fill-rule="evenodd" clip-rule="evenodd"/><circle cx="43.5" cy="150.5" r="2.5" fill-rule="evenodd" clip-rule="evenodd"/></svg>