<svg xmlns="http://www.w3.org/2000/svg" data-name="Layer 1" viewBox="0 0 512 512"><g data-name=" Group "><path fill="#00efd1" d="M261.57,261.08l-40.39,59.93a.974.974,0,0,0,0,1.19.984.984,0,0,0,1.18.21l164.07-72.79v.01h58.92v62.85A105.022,105.022,0,0,1,441.17,341l-.34-.1H69.18a102.285,102.285,0,0,1-4.01-28.42V249.63H269.09l.13.09Z"/><path fill="#00acea" d="M440.83,340.9l.34.1a103.381,103.381,0,0,1-84.04,73.51,105.1,105.1,0,0,1-15.47,1.14H168.34A103.1,103.1,0,0,1,69.18,340.9Z"/><path fill="#ec6a46" d="M261.57,261.08l7.65-11.36,58.49-86.79c18.17-26.6,55.2-32.14,73.18-10.68l10.86,12.95,8.15,9.72c17.99,21.46,6.41,57.36-23.3,70.19l-10.17,4.51L222.36,322.41a.984.984,0,0,1-1.18-.21.974.974,0,0,1,0-1.19Z"/><path fill="#00efd1" d="M357.14,414.62v60.57a12.684,12.684,0,0,1-12.68,12.68H165.54a12.684,12.684,0,0,1-12.68-12.68V414.62l.02-.13a103.809,103.809,0,0,0,15.46,1.16H341.66a105.1,105.1,0,0,0,15.47-1.14Z"/><path fill="#f4b844" d="M319.33,36.21,303.91,67.88S283.2,54.51,276.19,55.39l23.59-31.26Z"/><path fill="#fedb41" d="M303.91,67.88s33.25,83.44-91.18,114.77c-77.11,19.32-126.56-2.19-153.8-22.5l.1-.13L80.9,124.95c115.39,9.62,195.14-69.54,195.14-69.54.05-.01.1-.01.15-.02C283.2,54.51,303.91,67.88,303.91,67.88Z"/><path fill="#f4b844" d="M80.9,124.95,59.03,160.02l-.1.13c-18.19-13.56-26.47-26.59-26.47-26.59l11.49-14.64A239.052,239.052,0,0,0,80.9,124.95Z"/><path fill="#083863" d="M476.746,115.324q-2.1.782-4.276,1.689c4.7-4.916,8.413-9.571,10.461-13.6a8,8,0,0,0-14.262-7.252c-1.713,3.369-5.571,7.822-10.708,12.819a8,8,0,0,0-13.365-8.79c-11.731,17.656-30.688,35.92-39.917,44.365-9.1-9.25-22.042-14.12-36.081-13.435-18.692.918-36.446,11.307-47.522,27.522L265.028,242H65.17c-4.419,0-8.17,3.211-8.17,7.63v62.85a111.962,111.962,0,0,0,88,108.647V475.19A20.7,20.7,0,0,0,165.54,496H344.46A20.7,20.7,0,0,0,365,475.19V421.173a111.241,111.241,0,0,0,83.6-77.93A109.582,109.582,0,0,0,453,312.48V249.63a7.4,7.4,0,0,0-7.65-7.63H416.674a59.558,59.558,0,0,0,18.353-30.627c3.6-15.2.323-30.383-9-41.5l-.645-.815c9.378-5.814,26.634-15.581,39.836-17.552a8.009,8.009,0,0,0,2.829-14.848,149.279,149.279,0,0,1,14.284-6.338,8,8,0,0,0-5.588-14.995ZM344.46,480H165.54a4.68,4.68,0,0,1-4.54-4.81V423.385c2,.168,4.854.615,7.34.615H341.66c2.493,0,5.34-.445,7.34-.61v51.8A4.68,4.68,0,0,1,344.46,480Zm11.492-73.178A97.465,97.465,0,0,1,341.66,408H168.34a96.3,96.3,0,0,1-14.258-1.194C121.062,401.789,93.174,379,80.465,349H429.907C417.132,379,389.105,401.908,355.952,406.822ZM437,312.407A96.324,96.324,0,0,1,434.992,333H75.4A98.033,98.033,0,0,1,73,312.48V258H254.05c-.1,0-.184.262-.26.491L214.6,316.55a8.859,8.859,0,0,0,7.321,13.988,8.727,8.727,0,0,0,3.681-.619L388.105,258H437ZM419.458,207.5c-3.146,13.273-12.877,24.588-26.1,30.3l-10.17,4.51h0L241.507,305.164l21.377-31.722a49.038,49.038,0,0,0,4.586,3.171,8,8,0,0,0,8.32-13.667,32.383,32.383,0,0,1-3.927-2.829l15.545-23.067A69.72,69.72,0,0,0,297,244.319a8,8,0,0,0,8.526-13.539,53.446,53.446,0,0,1-9.057-7.171l17.285-25.65a80.487,80.487,0,0,0,14.8,13.263,8,8,0,1,0,9.123-13.144,64.475,64.475,0,0,1-12.633-11.521l-2-2.381,11.277-16.734c8.239-12.061,21.348-19.665,35.067-20.338.639-.031,1.271-.047,1.9-.047,9.577,0,17.861,3.63,23.477,10.334l19.009,22.669C419.9,187.371,421.919,197.115,419.458,207.5Z"/><path fill="#083863" d="M214.683,190.408c46.772-11.777,77.858-32.17,92.395-60.615,13.663-26.736,8.2-52.2,5.454-61.347l13.991-28.734A8,8,0,0,0,323.535,29.4l-19.55-12.08a8,8,0,0,0-10.591,1.987L270.5,49.651c-.028.027-.061.048-.089.076-.2.192-19.848,19.456-52.947,37.279-30.3,16.315-78.468,34.756-135.9,29.972a232.2,232.2,0,0,1-35.715-5.831,8,8,0,0,0-8.189,2.833l-11.49,14.641a8,8,0,0,0-.459,9.23c.37.583,9.291,14.437,28.44,28.712,21.23,15.829,54.141,31.668,100.846,31.666A245.409,245.409,0,0,0,214.683,190.408ZM301.775,34.767l7.2,4.445-8.4,17.254a113.145,113.145,0,0,0-10.943-5.6ZM42.529,133.688l4.569-5.821c6.734,1.5,13.514,2.71,20.286,3.638L56.912,148.3A114.994,114.994,0,0,1,42.529,133.688Zm27.209,24.279,15.4-24.688q7.6.477,14.984.47c52.736,0,96.668-17.367,125.429-32.925,27.911-15.1,46.483-30.871,53.275-37.053,3.911,1.236,11.373,5.011,18.417,9.359,2.031,6.783,6.7,27.651-4.409,49.382-12.345,24.156-39.952,41.78-82.044,52.378C142.6,191.973,97.154,176.169,69.738,157.967Z"/><path fill="#083863" d="M279.407,113.357a8,8,0,1,0-11.954-10.634c-17.43,19.592-39.279,32.8-66.76,40.354-38.418,10.378-70.129,6.567-93.464,2.087a8,8,0,1,0-3.017,15.712,244.323,244.323,0,0,0,46.772,4.853,205.284,205.284,0,0,0,53.917-7.216C235.064,150.217,260.131,135.024,279.407,113.357Z"/></g></svg>