<?xml version="1.0" encoding="UTF-8" standalone="no"?>
<svg xmlns:dc="http://purl.org/dc/elements/1.1/" xmlns:cc="http://creativecommons.org/ns#" xmlns:rdf="http://www.w3.org/1999/02/22-rdf-syntax-ns#" xmlns:svg="http://www.w3.org/2000/svg" xmlns="http://www.w3.org/2000/svg" xmlns:sodipodi="http://sodipodi.sourceforge.net/DTD/sodipodi-0.dtd" xmlns:inkscape="http://www.inkscape.org/namespaces/inkscape" width="32" height="32" viewBox="0 0 32 32.000001" id="svg17515" version="1.1" inkscape:version="0.91 r13725" sodipodi:docname="soya-beans-protein-vegan-vegetable.svg">
  <defs id="defs17517"/>
  <sodipodi:namedview id="base" pagecolor="#ffffff" bordercolor="#666666" borderopacity="1.0" inkscape:pageopacity="0.0" inkscape:pageshadow="2" inkscape:zoom="6.409375" inkscape:cx="-1.5659813" inkscape:cy="27.741575" inkscape:document-units="px" inkscape:current-layer="layer1" showgrid="false" units="px" inkscape:window-width="1366" inkscape:window-height="716" inkscape:window-x="-8" inkscape:window-y="-8" inkscape:window-maximized="1"/>
  
  <g inkscape:label="Layer 1" inkscape:groupmode="layer" id="layer1" transform="translate(0,-1020.3622)">
    <path style="color:#000000;font-style:normal;font-variant:normal;font-weight:normal;font-stretch:normal;font-size:medium;line-height:normal;font-family:sans-serif;text-indent:0;text-align:start;text-decoration:none;text-decoration-line:none;text-decoration-style:solid;text-decoration-color:#000000;letter-spacing:normal;word-spacing:normal;text-transform:none;direction:ltr;writing-mode:lr-tb;baseline-shift:baseline;text-anchor:start;white-space:normal;clip-rule:nonzero;display:inline;overflow:visible;visibility:visible;opacity:1;isolation:auto;mix-blend-mode:normal;color-interpolation:sRGB;color-interpolation-filters:linearRGB;solid-color:#000000;solid-opacity:1;fill:#000000;fill-opacity:1;fill-rule:evenodd;stroke:none;stroke-width:0.99999988;stroke-linecap:round;stroke-linejoin:round;stroke-miterlimit:4;stroke-dasharray:none;stroke-dashoffset:0;stroke-opacity:1;color-rendering:auto;image-rendering:auto;shape-rendering:auto;text-rendering:auto;enable-background:accumulate" d="m 28.212616,1031.3917 a 0.50228441,0.50155239 0 0 0 -0.07835,0.01 c 0,0 -1.054893,0.2053 -2.31309,0.5701 -1.258097,0.3647 -2.714174,0.861 -3.635272,1.5907 -0.70122,0.5555 -1.049469,1.332 -1.3713,2.0314 -0.321933,0.6993 -0.619557,1.3265 -1.069257,1.7181 -0.949022,0.8261 -2.47029,1.0463 -3.87072,1.7905 -1.364369,0.725 -2.367632,1.8304 -3.543061,2.1412 -0.561096,0.1481 -1.24986,0.023 -2.014864,-0.1176 -0.7651033,-0.1403 -1.619906,-0.2946 -2.4699877,0.037 -1.1562437,0.4513 -2.2803444,1.5808 -3.1879821,2.5977 -0.886343,0.993 -1.4983657,1.8506 -1.5282988,1.8924 -4.018e-4,6e-4 -0.021094,0.025 -0.021094,0.025 a 0.50228441,0.50155239 0 0 0 -0.016072,0.02 0.50228441,0.50155239 0 0 0 0.016072,0.6034 l 0,0 a 0.50228441,0.50155239 0 0 0 0.043192,0.047 0.50228441,0.50155239 0 0 0 0.025112,0.023 c 0.032143,0.031 1.2933536,1.2474 1.9403318,1.8709 0.268394,0.2587 0.533875,0.6583 0.8573138,1.0539 0.3234389,0.3957 0.7299473,0.8085 1.3301172,0.9639 1.1055181,0.2862 2.1423304,-0.082 3.0860288,-0.4917 0.943598,-0.4093 1.834159,-0.8659 2.656317,-0.9717 1.449347,-0.1859 3.154131,0.4254 4.932141,0.01 1.356334,-0.317 2.655112,-0.9702 3.723565,-1.8571 1.317963,-1.0942 1.829237,-2.701 2.779967,-3.6614 0.549444,-0.5552 1.371802,-0.9677 2.199183,-1.4437 0.827381,-0.4761 1.681079,-1.0336 2.160009,-1.9826 0.793028,-1.5707 0.19115,-3.3201 0.151072,-4.6976 -0.03315,-1.1497 -0.264878,-3.3244 -0.264878,-3.3244 a 0.50228441,0.50155239 0 0 0 -0.517904,-0.4486 z m -0.435537,1.1283 c 0.05625,0.5554 0.18874,1.8117 0.213851,2.674 0.04621,1.5938 0.503942,3.1341 -0.04319,4.2178 -0.330671,0.6551 -0.97795,1.1101 -1.765655,1.5633 -0.787603,0.4531 -1.695944,0.8858 -2.411126,1.6083 -1.182962,1.1951 -1.693333,2.7513 -2.709252,3.5947 -0.946611,0.7859 -2.112699,1.3741 -3.307715,1.6534 -1.391189,0.3252 -3.053383,-0.2574 -4.832096,-0.029 -1.077092,0.1387 -2.034953,0.6603 -2.9290303,1.0481 -0.893977,0.3877 -1.6843932,0.6346 -2.4326218,0.4408 -0.2815525,-0.073 -0.5310625,-0.2922 -0.8063873,-0.6289 -0.2752244,-0.3367 -0.550951,-0.7692 -0.9377718,-1.142 -0.5448237,-0.5252 -1.3132421,-1.2658 -1.6341698,-1.5752 0.1760833,-0.2394 0.5150914,-0.7215 1.2261547,-1.5181 0.8679612,-0.9725 2.008937,-2.0204 2.8053801,-2.3312 0.5257388,-0.2052 1.1715116,-0.1237 1.9207442,0.014 0.749133,0.1374 1.587262,0.3308 2.454218,0.1019 1.566268,-0.4141 2.617444,-1.6199 3.757014,-2.2255 1.176835,-0.6253 2.807489,-0.8323 4.059057,-1.9218 0.669679,-0.5829 1.003263,-1.3617 1.322282,-2.0549 0.31902,-0.6932 0.620762,-1.2971 1.082918,-1.6632 0.669779,-0.5307 2.081861,-1.0636 3.291944,-1.4144 0.911355,-0.2641 1.335642,-0.3403 1.675454,-0.4114 z" id="path9738" inkscape:connector-curvature="0"/>
    <path style="color:#000000;font-style:normal;font-variant:normal;font-weight:normal;font-stretch:normal;font-size:medium;line-height:normal;font-family:sans-serif;text-indent:0;text-align:start;text-decoration:none;text-decoration-line:none;text-decoration-style:solid;text-decoration-color:#000000;letter-spacing:normal;word-spacing:normal;text-transform:none;direction:ltr;writing-mode:lr-tb;baseline-shift:baseline;text-anchor:start;white-space:normal;clip-rule:nonzero;display:inline;overflow:visible;visibility:visible;opacity:1;isolation:auto;mix-blend-mode:normal;color-interpolation:sRGB;color-interpolation-filters:linearRGB;solid-color:#000000;solid-opacity:1;fill:#000000;fill-opacity:1;fill-rule:evenodd;stroke:none;stroke-width:0.99999988;stroke-linecap:round;stroke-linejoin:round;stroke-miterlimit:4;stroke-dasharray:none;stroke-dashoffset:0;stroke-opacity:1;color-rendering:auto;image-rendering:auto;shape-rendering:auto;text-rendering:auto;enable-background:accumulate" d="m 22.570316,1022.3626 a 0.50228441,0.50155239 0 0 0 -0.298227,0.086 c 0,0 -0.875193,0.5946 -1.902965,1.3966 -1.027772,0.8022 -2.206014,1.7948 -2.876095,2.7133 -0.604087,0.8284 -0.899501,1.7968 -1.141779,2.6916 -0.162925,0.6034 -0.131586,1.1904 -0.137311,1.7063 -0.01005,0.5166 -0.04621,0.9471 -0.227613,1.2812 -0.173371,0.3198 -0.506754,0.5799 -0.933854,0.8601 -0.427,0.28 -0.936968,0.5706 -1.337952,1.0538 -0.584299,0.7045 -0.732559,1.4936 -1.09467,1.9061 -0.432022,0.4923 -1.005573,0.8973 -1.6186,1.2303 -0.537994,0.2922 -1.2687445,0.3928 -2.0481116,0.5426 -0.7793672,0.15 -1.6351743,0.3686 -2.2836592,1.0559 -0.6640541,0.7243 -1.1924045,1.8189 -1.6322613,2.8817 a 0.50228441,0.50155239 0 1 0 0.9280285,0.3821 c 0.4199682,-1.015 0.950428,-2.044 1.440006,-2.58 0.416754,-0.4419 1.0116002,-0.6177 1.7420497,-0.7582 0.7304495,-0.1404 1.5686789,-0.2283 2.3386039,-0.6465 0.681933,-0.3705 1.353421,-0.8365 1.893121,-1.4516 0.609612,-0.6945 0.758073,-1.4962 1.114358,-1.9257 0.251217,-0.3028 0.662748,-0.5599 1.114357,-0.856 0.451609,-0.2962 0.954145,-0.6428 1.267338,-1.2205 0.315403,-0.5816 0.341118,-1.1957 0.347245,-1.7474 0.01004,-0.5518 0,-1.0563 0.103962,-1.4575 0.235146,-0.8686 0.51027,-1.7144 0.982873,-2.3626 0.533975,-0.732 1.682886,-1.7338 2.68183,-2.5133 0.759378,-0.5926 1.125407,-0.8367 1.404749,-1.0305 0.111597,0.194 0.154689,0.2558 0.327658,0.5838 0.315504,0.5985 0.66305,1.3419 0.778764,1.7827 0.258952,0.9853 0.515293,2.0089 0.627793,3.0031 0.05625,0.4974 0.07835,0.9872 0.04721,1.4595 a 0.50238805,0.50165588 0 1 0 1.00256,0.066 c 0.03616,-0.5469 0.01105,-1.0956 -0.05123,-1.6377 l 0,0 c -0.123047,-1.0855 -0.394856,-2.1532 -0.655315,-3.1442 -0.16403,-0.6244 -0.531665,-1.3692 -0.861231,-1.9942 -0.315805,-0.5989 -0.575159,-1.029 -0.598362,-1.0677 0,0 0,0 0,0 a 0.50228441,0.50155239 0 0 0 -0.439455,-0.29 z" id="path9740" inkscape:connector-curvature="0"/>
    <path style="color:#000000;font-style:normal;font-variant:normal;font-weight:normal;font-stretch:normal;font-size:medium;line-height:normal;font-family:sans-serif;text-indent:0;text-align:start;text-decoration:none;text-decoration-line:none;text-decoration-style:solid;text-decoration-color:#000000;letter-spacing:normal;word-spacing:normal;text-transform:none;direction:ltr;writing-mode:lr-tb;baseline-shift:baseline;text-anchor:start;white-space:normal;clip-rule:nonzero;display:inline;overflow:visible;visibility:visible;opacity:1;isolation:auto;mix-blend-mode:normal;color-interpolation:sRGB;color-interpolation-filters:linearRGB;solid-color:#000000;solid-opacity:1;fill:#000000;fill-opacity:1;fill-rule:evenodd;stroke:none;stroke-width:0.99999988;stroke-linecap:butt;stroke-linejoin:miter;stroke-miterlimit:4;stroke-dasharray:none;stroke-dashoffset:0;stroke-opacity:1;color-rendering:auto;image-rendering:auto;shape-rendering:auto;text-rendering:auto;enable-background:accumulate" d="m 10.901205,1043.4335 c -0.247702,0.022 -0.458842,0.077 -0.612023,0.1019 -0.5375916,0.088 -1.3745148,0.088 -1.9580105,0.7249 -0.322334,0.3517 -0.57546,0.8002 -0.7121682,1.289 -0.1366077,0.4888 -0.1593087,1.0327 0.068304,1.5299 0.1530809,0.3338 0.4305151,0.5426 0.7101592,0.672 0.279644,0.1294 0.5747569,0.188 0.8593228,0.188 1.0514778,0 1.9462578,-0.6355 2.5857028,-1.285 0.35297,-0.3588 0.700416,-0.8579 0.700416,-1.4869 0,-0.584 -0.230425,-1.2059 -0.790617,-1.5594 -0.289689,-0.1827 -0.603786,-0.1965 -0.851488,-0.1744 z m 0.0904,0.9991 c 0.138415,-0.012 0.19788,0.01 0.223594,0.022 0.145247,0.091 0.323741,0.4507 0.323741,0.7131 0,0.2177 -0.175481,0.5411 -0.413942,0.7836 -0.528953,0.5374 -1.2525721,0.9853 -1.8677086,0.9853 -0.1320876,0 -0.306162,-0.034 -0.4355375,-0.094 -0.1293756,-0.06 -0.1992866,-0.1357 -0.2196773,-0.1802 -0.096429,-0.2114 -0.1068754,-0.5163 -0.016072,-0.8424 0.091407,-0.326 0.2799454,-0.6583 0.4846561,-0.8816 0.210637,-0.2298 0.7603826,-0.3092 1.3811438,-0.4113 0.212948,-0.035 0.400984,-0.081 0.5395,-0.094 z" id="path9742" inkscape:connector-curvature="0"/>
    <path style="color:#000000;font-style:normal;font-variant:normal;font-weight:normal;font-stretch:normal;font-size:medium;line-height:normal;font-family:sans-serif;text-indent:0;text-align:start;text-decoration:none;text-decoration-line:none;text-decoration-style:solid;text-decoration-color:#000000;letter-spacing:normal;word-spacing:normal;text-transform:none;direction:ltr;writing-mode:lr-tb;baseline-shift:baseline;text-anchor:start;white-space:normal;clip-rule:nonzero;display:inline;overflow:visible;visibility:visible;opacity:1;isolation:auto;mix-blend-mode:normal;color-interpolation:sRGB;color-interpolation-filters:linearRGB;solid-color:#000000;solid-opacity:1;fill:#000000;fill-opacity:1;fill-rule:evenodd;stroke:none;stroke-width:0.99999988;stroke-linecap:butt;stroke-linejoin:miter;stroke-miterlimit:4;stroke-dasharray:none;stroke-dashoffset:0;stroke-opacity:1;color-rendering:auto;image-rendering:auto;shape-rendering:auto;text-rendering:auto;enable-background:accumulate" d="m 19.190079,1040.9182 c -1.163275,0 -2.157096,0.7223 -2.866251,1.4516 -0.392346,0.4036 -0.767113,0.9607 -0.767113,1.6456 0,0.6267 0.217668,1.3623 0.880819,1.7357 1.029479,0.5797 2.304953,0.2852 3.199834,-0.2645 0.754155,-0.463 1.086735,-1.2888 1.286925,-1.9806 0.129376,-0.4466 0.315203,-1.0918 -0.05324,-1.6964 -0.366832,-0.6021 -1.034402,-0.8914 -1.68128,-0.8914 z m 0,1.003 c 0.293907,0 0.701822,0.2089 0.823965,0.4094 0.08237,0.1349 0.05826,0.5129 -0.05324,0.8973 -0.170458,0.589 -0.466374,1.1674 -0.849479,1.4026 -0.639344,0.3927 -1.639995,0.5508 -2.179696,0.2469 -0.174878,-0.098 -0.37075,-0.5215 -0.37075,-0.862 0,-0.2826 0.207122,-0.6627 0.484556,-0.9482 0.601576,-0.6182 1.426144,-1.146 2.144339,-1.146 z" id="path9744" inkscape:connector-curvature="0"/>
    <path style="color:#000000;font-style:normal;font-variant:normal;font-weight:normal;font-stretch:normal;font-size:medium;line-height:normal;font-family:sans-serif;text-indent:0;text-align:start;text-decoration:none;text-decoration-line:none;text-decoration-style:solid;text-decoration-color:#000000;letter-spacing:normal;word-spacing:normal;text-transform:none;direction:ltr;writing-mode:lr-tb;baseline-shift:baseline;text-anchor:start;white-space:normal;clip-rule:nonzero;display:inline;overflow:visible;visibility:visible;opacity:1;isolation:auto;mix-blend-mode:normal;color-interpolation:sRGB;color-interpolation-filters:linearRGB;solid-color:#000000;solid-opacity:1;fill:#000000;fill-opacity:1;fill-rule:evenodd;stroke:none;stroke-width:0.99999988;stroke-linecap:butt;stroke-linejoin:miter;stroke-miterlimit:4;stroke-dasharray:none;stroke-dashoffset:0;stroke-opacity:1;color-rendering:auto;image-rendering:auto;shape-rendering:auto;text-rendering:auto;enable-background:accumulate" d="m 25.830921,1035.4115 c -0.272914,0.025 -0.509466,0.085 -0.686654,0.1155 -0.63613,0.107 -1.476067,0.1837 -2.130579,0.772 -0.493696,0.4435 -0.666063,1.0557 -0.780773,1.5593 -0.09542,0.4163 -0.306564,1.0525 0.05926,1.6651 0.366832,0.6147 1.043642,0.8933 1.683288,0.8933 1.163175,0 2.156996,-0.7203 2.866251,-1.4497 0.392848,-0.4038 0.769021,-0.9627 0.769021,-1.6475 0,-0.6419 -0.252523,-1.3324 -0.857314,-1.7199 l 0,0 c -0.309276,-0.1977 -0.647179,-0.2128 -0.920093,-0.1881 z m 0.0904,0.9991 c 0.161519,-0.014 0.242278,0 0.288383,0.033 0.189041,0.1211 0.396263,0.5503 0.396263,0.8756 0,0.2831 -0.207021,0.663 -0.484555,0.9482 -0.601577,0.6187 -1.427752,1.146 -2.146248,1.146 -0.30124,0 -0.695695,-0.1951 -0.820149,-0.4035 -0.07333,-0.1226 -0.04018,-0.5027 0.05725,-0.9286 l 0,0 c 0.09944,-0.4378 0.260961,-0.846 0.472803,-1.0364 0.343227,-0.3084 0.959167,-0.4148 1.626335,-0.5269 l 0,0 c 0.235046,-0.04 0.446587,-0.091 0.608206,-0.1058 z" id="path9746" inkscape:connector-curvature="0"/>
  </g>

	<metadata>
		<rdf:RDF xmlns:rdf="http://www.w3.org/1999/02/22-rdf-syntax-ns#" xmlns:rdfs="http://www.w3.org/2000/01/rdf-schema#" xmlns:dc="http://purl.org/dc/elements/1.1/">
			<rdf:Description about="https://iconscout.com/legal#licenses" dc:title="soya-beans-protein-vegan-vegetable-soy-gastronomy" dc:description="soya-beans-protein-vegan-vegetable-soy-gastronomy" dc:publisher="Iconscout" dc:date="2017-04-20" dc:format="image/svg+xml" dc:language="en">
				<dc:creator>
					<rdf:Bag>
						<rdf:li>Vignesh Oviyan</rdf:li>
					</rdf:Bag>
				</dc:creator>
			</rdf:Description>
		</rdf:RDF>
    </metadata></svg>
