<?xml version="1.0" standalone="no"?>
<!DOCTYPE svg PUBLIC "-//W3C//DTD SVG 20010904//EN"
 "http://www.w3.org/TR/2001/REC-SVG-20010904/DTD/svg10.dtd">
<svg version="1.0" xmlns="http://www.w3.org/2000/svg"
 width="261.000000pt" height="264.000000pt" viewBox="0 0 261.000000 264.000000"
 preserveAspectRatio="xMidYMid meet">
<metadata>
Created by potrace 1.15, written by Peter Selinger 2001-2017
</metadata>
<g transform="translate(0.000000,264.000000) scale(0.100000,-0.100000)"
fill="#000000" stroke="none">
<path d="M1261 2559 c-33 -36 -1205 -2072 -1209 -2102 -3 -20 3 -36 19 -53
l22 -24 1217 0 1217 0 21 23 c12 13 22 34 22 48 0 27 -1189 2096 -1217 2117
-26 19 -70 14 -92 -9z m554 -1104 c274 -482 495 -878 493 -880 -3 -3 -455 -4
-1004 -3 l-1000 3 500 878 c274 482 502 877 506 877 4 0 232 -394 505 -875z"/>
<path d="M1205 1781 c-61 -16 -150 -65 -190 -105 -49 -49 -81 -112 -95 -186
-12 -63 -6 -105 26 -176 19 -43 22 -62 17 -130 l-5 -79 34 -36 c33 -35 66 -95
56 -104 -6 -7 -178 49 -225 73 -64 33 -79 30 -92 -22 -20 -82 -18 -86 43 -86
32 0 100 -14 172 -36 110 -33 151 -55 139 -75 -10 -16 -215 -89 -249 -89 -44
0 -50 -10 -35 -60 20 -67 29 -68 127 -22 48 22 112 49 143 60 l56 21 22 -25
c55 -64 187 -85 272 -46 24 12 56 29 71 39 26 16 29 16 80 -1 29 -10 91 -36
137 -57 46 -22 88 -39 93 -39 10 0 48 84 48 106 0 10 -13 14 -42 14 -24 0 -86
15 -138 33 l-95 32 2 39 c3 52 12 60 95 92 62 23 79 26 143 20 47 -4 76 -3 80
4 3 5 0 35 -7 66 -17 71 -37 84 -87 56 -40 -23 -186 -82 -202 -82 -11 0 13 50
44 92 16 21 19 37 15 78 -4 40 0 65 20 113 29 72 41 209 23 272 -28 104 -111
181 -242 226 -69 23 -203 34 -254 20z m226 -37 c117 -35 205 -103 236 -182 24
-64 24 -188 -1 -270 -31 -100 -48 -46 -32 100 9 80 3 128 -14 128 -6 0 -8 -11
-4 -25 4 -14 0 -69 -7 -121 -12 -92 -12 -99 10 -164 13 -37 20 -76 17 -87 -4
-11 -29 -39 -55 -62 -30 -24 -54 -55 -61 -76 -6 -19 -15 -33 -19 -31 -4 3 -38
-4 -76 -15 -38 -10 -92 -19 -120 -19 -71 0 -156 32 -168 62 -13 35 -47 67 -99
94 -61 31 -66 53 -41 158 28 110 18 315 -11 240 -3 -8 -1 -46 5 -84 14 -95 0
-120 -29 -52 -69 161 33 349 221 407 59 19 183 18 248 -1z m435 -739 c7 -22
10 -43 6 -47 -4 -4 -28 -2 -53 3 -38 8 -57 6 -120 -14 -41 -14 -82 -28 -92
-32 -15 -6 -18 -4 -15 14 2 18 24 31 112 66 59 24 111 46 114 50 14 14 35 -3
48 -40z m-1021 2 c33 -13 94 -36 137 -51 57 -20 77 -33 82 -49 3 -11 4 -22 3
-23 -1 -1 -60 16 -132 37 -91 26 -140 36 -164 32 -31 -5 -33 -4 -26 13 4 10
10 32 13 47 2 16 9 26 16 23 6 -3 38 -16 71 -29z m259 -15 c7 -15 17 -47 21
-71 31 -188 381 -184 410 5 7 49 24 94 35 94 12 0 -20 -191 -39 -228 -27 -53
-65 -90 -113 -112 -101 -46 -246 -4 -280 80 -6 14 -27 82 -48 152 -33 112 -35
126 -19 117 10 -5 25 -22 33 -37z m0 -218 c9 -24 2 -29 -66 -54 -35 -12 -89
-36 -120 -51 -32 -16 -63 -29 -70 -29 -7 0 -18 16 -24 35 l-11 35 36 1 c20 0
79 18 131 39 110 44 116 45 124 24z"/>
<path d="M1429 1310 c-20 -11 -39 -26 -43 -35 -16 -44 64 -139 112 -133 14 2
34 15 45 30 24 33 35 121 17 143 -17 21 -87 18 -131 -5z"/>
<path d="M1145 1313 c-74 -19 -88 -82 -31 -139 41 -41 74 -43 110 -8 29 30 52
94 43 118 -11 29 -69 42 -122 29z"/>
<path d="M1301 1172 c-15 -5 -61 -98 -61 -124 0 -30 26 -45 74 -43 60 3 79 19
70 59 -15 73 -51 120 -83 108z"/>
</g>
</svg>
