<?xml version="1.0" encoding="UTF-8" standalone="no"?>
<svg xmlns:dc="http://purl.org/dc/elements/1.1/" xmlns:cc="http://creativecommons.org/ns#" xmlns:rdf="http://www.w3.org/1999/02/22-rdf-syntax-ns#" xmlns:svg="http://www.w3.org/2000/svg" xmlns="http://www.w3.org/2000/svg" xmlns:sodipodi="http://sodipodi.sourceforge.net/DTD/sodipodi-0.dtd" xmlns:inkscape="http://www.inkscape.org/namespaces/inkscape" width="48" height="48" viewBox="0 0 48 48.000001" id="svg4763" version="1.1" inkscape:version="0.91 r13725" sodipodi:docname="wheat-gluten-autumn-thanksgiving.svg">
  <defs id="defs4765"/>
  <sodipodi:namedview id="base" pagecolor="#ffffff" bordercolor="#666666" borderopacity="1.0" inkscape:pageopacity="0.0" inkscape:pageshadow="2" inkscape:zoom="4.1979861" inkscape:cx="-37.488197" inkscape:cy="22.935368" inkscape:document-units="px" inkscape:current-layer="layer1" showgrid="true" units="px" inkscape:object-nodes="true" inkscape:snap-bbox="true" inkscape:window-width="1366" inkscape:window-height="716" inkscape:window-x="-8" inkscape:window-y="-8" inkscape:window-maximized="1">
    <inkscape:grid type="xygrid" id="grid5311" empspacing="4"/>
  </sodipodi:namedview>
  
  <g inkscape:label="Layer 1" inkscape:groupmode="layer" id="layer1" transform="translate(0,-1004.3622)">
    <g transform="matrix(0.53629405,0,0,0.53619714,-2878.1848,1056.8674)" id="g11404">
      <path style="fill:none;fill-rule:evenodd;stroke:#000000;stroke-width:1.9891423;stroke-linecap:round;stroke-linejoin:round;stroke-miterlimit:4;stroke-dasharray:none;stroke-opacity:1" d="m 5394.9386,-42.768111 c 0,0 5.8159,1.638763 8.3479,3.25074 2.3481,1.49469 4.9809,3.178991 6.0893,5.790106 1.329,3.13154 0,10.259827 0,10.259827 0,0 -6.1408,-2.175643 -9.1339,-3.555342 -3.203,-1.476514 -4.2626,-4.639624 -5.1069,-7.618672 -0.7367,-2.59887 -0.1956,-8.126659 -0.1956,-8.126659 z" id="path11406" inkscape:connector-curvature="0" sodipodi:nodetypes="caacsscc"/>
      <path sodipodi:nodetypes="csacaacc" inkscape:connector-curvature="0" id="path11408" d="m 5423.861,-53.041905 c -0.047,0.378838 -6.0108,3.196784 -8.348,3.25074 -2.7828,0.06505 -4.9809,3.178991 -6.0892,5.790107 -1.3291,3.13154 0,10.259826 0,10.259826 0,0 6.5684,-1.486463 9.1338,-3.555342 2.3562,-1.900124 4.1796,-4.680951 5.1069,-7.618672 0.8132,-2.57591 0.1957,-8.126659 0.1957,-8.126659 z" style="fill:none;fill-rule:evenodd;stroke:#000000;stroke-width:1.9891423;stroke-linecap:round;stroke-linejoin:round;stroke-miterlimit:4;stroke-dasharray:none;stroke-opacity:1"/>
      <path sodipodi:nodetypes="caacaacc" inkscape:connector-curvature="0" id="path11410" d="m 5394.9386,-63.186167 c 0,0 5.8159,1.638764 8.3479,3.250741 2.3481,1.49469 4.9809,3.17899 6.0893,5.790106 1.329,3.13154 0,10.259826 0,10.259826 0,0 -6.5092,-1.609872 -9.1339,-3.555341 -2.5952,-1.923658 -5.0629,-4.524059 -5.9896,-7.618672 -0.7797,-2.604228 0.6871,-8.12666 0.6871,-8.12666 z" style="fill:none;fill-rule:evenodd;stroke:#000000;stroke-width:1.9891423;stroke-linecap:round;stroke-linejoin:round;stroke-miterlimit:4;stroke-dasharray:none;stroke-opacity:1"/>
      <path style="fill:none;fill-rule:evenodd;stroke:#000000;stroke-width:1.9891423;stroke-linecap:round;stroke-linejoin:round;stroke-miterlimit:4;stroke-dasharray:none;stroke-opacity:1" d="m 5423.861,-73.45996 c 0,0 -5.6804,2.299435 -8.25,3.937241 -2.2544,1.437099 -5.0471,2.685353 -6.1872,5.103605 -1.4583,3.093465 0,10.259827 0,10.259827 0,0 6.5684,-1.486463 9.1338,-3.555342 2.3562,-1.900124 4.1796,-4.680951 5.1069,-7.618672 0.8132,-2.57591 0.1957,-8.126659 0.1957,-8.126659 z" id="path11412" inkscape:connector-curvature="0" sodipodi:nodetypes="caacaacc"/>
      <path style="fill:none;fill-rule:evenodd;stroke:#000000;stroke-width:1.9891423;stroke-linecap:round;stroke-linejoin:round;stroke-miterlimit:4;stroke-dasharray:none;stroke-opacity:1" d="m 5395.0081,-83.991096 c 0,0 4.2166,1.108963 6.0924,2.172007 3.1343,1.77614 6.8067,3.610828 8.3446,6.868839 1.4599,3.0927 0,10.259827 0,10.259827 0,0 -8.1387,-1.302018 -10.997,-3.947574 -1.9376,-1.793551 -2.6597,-4.651486 -3.2436,-7.22644 -0.5993,-2.642494 -0.1956,-8.126659 -0.1956,-8.126659 z" id="path11414" inkscape:connector-curvature="0" sodipodi:nodetypes="caacaacc"/>
      <path sodipodi:nodetypes="caacaac" inkscape:connector-curvature="0" id="path11416" d="m 5418.8945,-96.9269 c 0,0 -5.3212,3.0684 -7.2462,5.380272 -1.8572,2.230364 -3.4819,4.934658 -3.8389,7.814787 -0.3909,3.152204 1.9861,9.31981 1.9861,9.31981 0,0 6.2107,-1.683535 8.1246,-4.022002 2.3141,-2.827896 2.7682,-6.938484 2.8241,-10.59198 0.042,-2.704486 -1.8497,-7.900887 -1.8497,-7.900887 z" style="fill:none;fill-rule:evenodd;stroke:#000000;stroke-width:1.9891423;stroke-linecap:round;stroke-linejoin:round;stroke-miterlimit:4;stroke-dasharray:none;stroke-opacity:1"/>
      <path sodipodi:nodetypes="cc" style="fill:none;fill-rule:evenodd;stroke:#000000;stroke-width:1.9891423;stroke-linecap:round;stroke-linejoin:round;stroke-miterlimit:4;stroke-dasharray:none;stroke-opacity:1" d="m 5409.3987,-23.251137 c 0.1311,4.795608 -0.3235,9.519105 0.1147,13.8403606" id="path11418" inkscape:connector-curvature="0"/>
      <path sodipodi:nodetypes="cc" style="fill:none;fill-rule:evenodd;stroke:#000000;stroke-width:1.9891423;stroke-linecap:round;stroke-linejoin:round;stroke-miterlimit:4;stroke-dasharray:none;stroke-opacity:1" d="m 5400.3401,-95.591016 c 1.35,3.059216 1.7397,4.678273 2.0626,6.196688" id="path11420" inkscape:connector-curvature="0"/>
      <path sodipodi:nodetypes="cc" style="fill:none;fill-rule:evenodd;stroke:#000000;stroke-width:1.9891423;stroke-linecap:round;stroke-linejoin:round;stroke-miterlimit:4;stroke-dasharray:none;stroke-opacity:1" d="m 5429.0977,-93.660853 c -0.9338,2.485601 -1.855,5.020949 -3.0428,6.490766" id="path11422" inkscape:connector-curvature="0"/>
    </g>
  </g>

	<metadata>
		<rdf:RDF xmlns:rdf="http://www.w3.org/1999/02/22-rdf-syntax-ns#" xmlns:rdfs="http://www.w3.org/2000/01/rdf-schema#" xmlns:dc="http://purl.org/dc/elements/1.1/">
			<rdf:Description about="https://iconscout.com/legal#licenses" dc:title="wheat-gluten-autumn-thanksgiving-millet-grain-harvest" dc:description="wheat-gluten-autumn-thanksgiving-millet-grain-harvest" dc:publisher="Iconscout" dc:date="2017-06-29" dc:format="image/svg+xml" dc:language="en">
				<dc:creator>
					<rdf:Bag>
						<rdf:li>Vignesh Oviyan</rdf:li>
					</rdf:Bag>
				</dc:creator>
			</rdf:Description>
		</rdf:RDF>
    </metadata></svg>
