<svg xmlns="http://www.w3.org/2000/svg" data-name="Layer 1" viewBox="0 0 32 32"><path fill="#f9bcac" d="M.62206,11.96952A7.8288,7.8288,0,0,1,4.16214,6.64992a9.394,9.394,0,0,1,5.734-1.468c2.00229.12684,3.63,1.475,5.60283,1.5892a7.42256,7.42256,0,0,0,2.773-.69495,11.56743,11.56743,0,0,1,9.76022,1.25564c3.333,2.08644,4.21115,5.101,2.85935,8.8053C28.8413,21.75537,23.5936,26.26677,17.58815,26.7822A16.89771,16.89771,0,0,1,2.13406,18.86863,9.96124,9.96124,0,0,1,.62206,11.96952Z"/><path fill="#fff" d="M6.00476,6.67007h0a2.5,2.5,0,0,1,2.5,2.5v2.5a1,1,0,0,1-1,1h-2a2,2,0,0,1-2-2v-1.5A2.5,2.5,0,0,1,6.00476,6.67007Z"/><path fill="#fff" d="M11.00476 6.67007h0a2.5 2.5 0 0 1 2.5 2.5v3.5a1 1 0 0 1-1 1h-2a2 2 0 0 1-2-2v-2.5a2.5 2.5 0 0 1 2.5-2.5zM16.00476 6.67007h0a2.5 2.5 0 0 1 2.5 2.5v2.5a2 2 0 0 1-2 2h-1a2 2 0 0 1-2-2v-2.5a2.5 2.5 0 0 1 2.5-2.5zM21.00476 6.67007h0a2.5 2.5 0 0 1 2.5 2.5v2.5a2 2 0 0 1-2 2h-2a1 1 0 0 1-1-1v-3.5a2.5 2.5 0 0 1 2.5-2.5zM26.00476 6.67007h0a2.5 2.5 0 0 1 2.5 2.5v1.5a2 2 0 0 1-2 2h-2a1 1 0 0 1-1-1v-2.5a2.5 2.5 0 0 1 2.5-2.5zM8.00476 18.67007h1a1 1 0 0 1 1 1v5a0 0 0 0 1 0 0h0a4 4 0 0 1-4-4v0A2 2 0 0 1 8.00476 18.67007zM12.00476 17.67007h1a1 1 0 0 1 1 1v6a0 0 0 0 1 0 0h-4a0 0 0 0 1 0 0v-5A2 2 0 0 1 12.00476 17.67007zM18.00476 24.67007h-4v-5a2 2 0 0 1 2-2h0a2 2 0 0 1 2 2zM19.00476 17.67007h1a2 2 0 0 1 2 2v5a0 0 0 0 1 0 0h-4a0 0 0 0 1 0 0v-6A1 1 0 0 1 19.00476 17.67007zM23.00476 18.67007h1a2 2 0 0 1 2 2v0a4 4 0 0 1-4 4h0a0 0 0 0 1 0 0v-5a1 1 0 0 1 1-1z"/><path fill="#e5303e" d="M.62685,13.33524c-.11312-.22853,2.78783-1.66189,3.14064-1.825a14.96916,14.96916,0,0,1,5.5449-1.3598c1.94686-.09389,3.77048.49,5.69772.53966,1.85393.04774,3.54136-.8431,5.3741-.86567a20.94251,20.94251,0,0,1,4.93594.53214,23.394,23.394,0,0,1,6.01674,2.234l.15442-.01015a6.57974,6.57974,0,0,0-3.45437-5.2488A11.56743,11.56743,0,0,0,18.27671,6.076a7.42256,7.42256,0,0,1-2.773.69495c-1.97283-.11416-3.60055-1.46236-5.60283-1.5892a9.394,9.394,0,0,0-5.734,1.468A7.8288,7.8288,0,0,0,.62682,11.96931a8.48233,8.48233,0,0,0-.10429.89329Z"/><path fill="#e5303e" d="M31.33478,12.59354c-.46.78-6.01,9.97-15.44,10.12-8.39.12-14.15-7.13-15.27-9.38l-.12244.15238a10.33375,10.33375,0,0,0,1.63245,5.37765,16.91675,16.91675,0,0,0,15.46,7.92c6-.52,11.25-5.03,13.3-10.65a8.82211,8.82211,0,0,0,.59766-3.52114Z"/><path fill="none" stroke="#000" stroke-linecap="round" stroke-linejoin="round" d="M31.329,12.59293c-.46.78-6.01,9.97-15.44,10.12-8.39.12-14.15-7.13-15.27-9.38-.11-.23,2.79-1.66,3.14-1.82a14.852,14.852,0,0,1,5.55-1.36c1.94-.1,3.77.49,5.7.54,1.85.04,3.54-.85,5.37-.87a20.92094,20.92094,0,0,1,4.94.53A23.21189,23.21189,0,0,1,31.329,12.59293Z"/><path fill="none" stroke="#000" stroke-linecap="round" stroke-linejoin="round" d="M31.329,12.59293c-.46.78-6.01,9.97-15.44,10.12-8.39.12-14.15-7.13-15.27-9.38-.11-.23,2.79-1.66,3.14-1.82a14.852,14.852,0,0,1,5.55-1.36c1.94-.1,3.77.49,5.7.54,1.85.04,3.54-.85,5.37-.87a20.92094,20.92094,0,0,1,4.94.53A23.21189,23.21189,0,0,1,31.329,12.59293Z"/><path fill="none" stroke="#000" stroke-linecap="round" stroke-linejoin="round" d="M.619,13.33292c1.12,2.25,6.88,9.5,15.27,9.38,9.43-.15,14.98-9.34,15.44-10.12-.46.78-6.01,9.97-15.44,10.12C7.499,22.83292,1.739,15.58292.619,13.33292Z"/><path d="M31.70941,15.14575q.07233-.28949.126-.57306c.0202-.10645.04089-.213.05713-.31812.02936-.19244.04956-.382.06561-.57007.014-.16119.02191-.32.02612-.47778.00409-.162.00708-.32367.00085-.48224-.00183-.04675.003-.096.00024-.14246a.47889.47889,0,0,0-.01605-.06769,7.06462,7.06462,0,0,0-3.6734-5.60419A11.99835,11.99835,0,0,0,18.10254,5.60156c-.17187.06055-.34277.124-.51465.18848a5.48311,5.48311,0,0,1-2.05859.4834,8.42542,8.42542,0,0,1-2.62891-.75488,9.50258,9.50258,0,0,0-2.96875-.835,9.82474,9.82474,0,0,0-6.0459,1.55078A8.30422,8.30422,0,0,0,.126,11.8877a9.1623,9.1623,0,0,0-.12286,1.55884c-.00116.01453-.00714.028-.007.04272.00012.02.00464.0401.00488.06012A9.74884,9.74884,0,0,0,.10773,14.865c.009.0614.02112.12225.03131.18359a10.40028,10.40028,0,0,0,.29126,1.275c.00653.02173.01074.0437.0174.06549a11.12982,11.12982,0,0,0,.47791,1.26c.04.09015.08215.17914.12469.26868a11.80877,11.80877,0,0,0,.65479,1.21118,17.43528,17.43528,0,0,0,14.582,8.209c.44727,0,.89648-.01855,1.34473-.05664A16.64543,16.64543,0,0,0,31.3584,16.30469c.10791-.29578.19763-.58612.278-.8736C31.66321,15.33521,31.68555,15.24078,31.70941,15.14575ZM20.384,21.39026c-.2724.09583-.5542.17688-.83618.25781-.1947.05591-.386.11719-.58533.16534-.15088.03644-.31.05756-.4635.08936V18.67285a.4948.4948,0,0,1,.5-.5h1a1.50164,1.50164,0,0,1,1.5,1.5v1.26776c-.17438.07709-.35034.152-.52911.22333C20.77594,21.24139,20.58313,21.32013,20.384,21.39026Zm-4.48926.82166-.01392.001c-.06738.001-.13477.002-.20215.002-.402-.00006-.79132-.03113-1.17969-.064v-2.478a1.50122,1.50122,0,0,1,2.56152-1.06152,1.468,1.468,0,0,1,.43848,1.06152v2.415c-.01288.00171-.025.005-.038.00671A13.9882,13.9882,0,0,1,15.89478,22.21191Zm-3.64362-.43677c-.27777-.06952-.55713-.13647-.82611-.22052-.18243-.057-.357-.12549-.53534-.18872q-.1972-.06985-.39069-.14465v-1.5484a1.50164,1.50164,0,0,1,1.5-1.5h1a.4948.4948,0,0,1,.5.5v3.3526c-.24188-.03815-.488-.06744-.724-.11713C12.59656,21.87073,12.42621,21.81891,12.25116,21.77515ZM8.43689,20.2597c-.21271-.11786-.42535-.23553-.62994-.36-.16107-.098-.31616-.2-.47211-.30151-.07117-.04639-.14026-.09387-.21039-.14093a1.48649,1.48649,0,0,1,.87457-.28442h1a.4948.4948,0,0,1,.5.5v1.12433c-.1875-.08722-.378-.171-.56006-.2641C8.76776,20.44556,8.60327,20.35187,8.43689,20.2597Zm-5.3681-4.3728c-.1217-.13861-.23718-.27423-.34894-.40826-.08246-.09888-.16541-.19781-.24237-.2937-.10565-.13159-.20349-.25824-.29871-.38318-.06793-.08917-.1377-.17963-.2002-.26489-.08746-.11938-.16583-.23126-.24261-.342-.05518-.07965-.11346-.16187-.163-.23651-.06671-.10046-.12292-.19086-.17932-.28143-.044-.07068-.09222-.14569-.12982-.20972-.00995-.01691-.01575-.02924-.02527-.04565.48547-.32031,1.59637-.89978,2.29242-1.2439a2.469,2.469,0,0,0,1.96808.99524h2a1.491,1.491,0,0,0,.84216-.25995A2.49132,2.49132,0,0,0,10.499,14.17285h2a1.49638,1.49638,0,0,0,1.26685-.7049,2.48783,2.48783,0,0,0,1.73315.7049h1a2.48783,2.48783,0,0,0,1.73315-.7049,1.49638,1.49638,0,0,0,1.26685.7049h2a2.49132,2.49132,0,0,0,2.15784-1.25995,1.491,1.491,0,0,0,.84216.25995h2A2.49282,2.49282,0,0,0,28.663,11.913c.66125.26282,1.31647.54675,1.95709.87323-.03259.051-.06409.10046-.10168.158-.03387.05188-.06866.10461-.10663.16144-.07092.10626-.15417.22656-.239.34857-.04962.07141-.09778.14105-.1521.21735-.09167.12866-.19641.26971-.30139.41077-.06226.08368-.12042.16364-.18726.25116-.12134.15875-.25739.32831-.39374.498-.06439.08014-.12244.156-.19019.23822-.21027.25519-.43506.519-.67706.78937-.018.02014-.03912.04114-.05731.06134q-.33618.37317-.71112.75726c-.09308.095-.19611.19067-.29285.286-.18463.18207-.37012.3642-.56775.54626-.12189.1123-.25293.22327-.3797.335-.187.16473-.37518.3291-.57269.49127-.10291.08447-.21216.16632-.31793.24982a2.49282,2.49282,0,0,0-1.37274-.41315h-1a1.491,1.491,0,0,0-.84216.25995A2.49132,2.49132,0,0,0,19.999,17.17285h-1a1.49674,1.49674,0,0,0-1.26556.70258,2.48765,2.48765,0,0,0-3.46759.00232,1.49638,1.49638,0,0,0-1.26685-.7049h-1A2.49132,2.49132,0,0,0,9.84119,18.4328a1.491,1.491,0,0,0-.84216-.25995h-1a2.45564,2.45564,0,0,0-1.71954.68774c-.17017-.12775-.33984-.25562-.50256-.386-.13763-.11023-.27118-.22131-.40338-.33282-.16705-.14093-.33148-.2821-.48981-.42413q-.18723-.168-.36578-.33594c-.15192-.14276-.3-.28516-.44287-.42719-.111-.11035-.22-.22028-.32544-.32965q-.20618-.214-.39795-.424C3.25531,16.0954,3.15967,15.99036,3.06879,15.8869ZM9.335,10.65234a15.53829,15.53829,0,0,1,3.09473.26074c.18665.02838.37982.05286.56934.08044v1.67932a.501.501,0,0,1-.5.5h-2a1.50164,1.50164,0,0,1-1.5-1.5v-.98816C9.11121,10.67676,9.22278,10.65759,9.335,10.65234Zm5.66309.541a10.7917,10.7917,0,0,0,2.916-.4502l.085-.02087v.95056a1.50164,1.50164,0,0,1-1.5,1.5h-1a1.50164,1.50164,0,0,1-1.5-1.5v-.55737C14.32947,11.14966,14.66022,11.18439,14.998,11.19336Zm10.21387-.35254a22.28334,22.28334,0,0,1,2.497.71265,1.51842,1.51842,0,0,1-1.2099.61938h-2a.501.501,0,0,1-.5-.5V10.60626C24.43,10.68073,24.84,10.75983,25.21191,10.84082ZM18.999,10.491a7.3102,7.3102,0,0,1,1.38672-.16772,18.52846,18.52846,0,0,1,2.61328.134v1.21564a1.50164,1.50164,0,0,1-1.5,1.5h-2a.501.501,0,0,1-.5-.5ZM4.48322,11.75757A14.4432,14.4432,0,0,1,7.999,10.78094v.89191a.501.501,0,0,1-.5.5h-2A1.47936,1.47936,0,0,1,4.48322,11.75757Zm19.02856,8.12994q-.2601.15976-.529.31171c-.15784.08954-.32166.17291-.48376.25824v-.78461a.4948.4948,0,0,1,.5-.5h1a1.49385,1.49385,0,0,1,.46558.08771q-.1517.10638-.30634.21088Q23.84167,19.68439,23.51178,19.88751ZM1.1123,12.05762A7.31975,7.31975,0,0,1,4.43262,7.07227,8.74961,8.74961,0,0,1,9.252,5.66211c.2041,0,.40918.00586.61523.01953a8.59732,8.59732,0,0,1,2.65723.76367,9.29182,9.29182,0,0,0,2.94824.82617,5.99092,5.99092,0,0,0,2.46582-.54492c.165-.06152.33008-.123.49316-.18066a10.99729,10.99729,0,0,1,9.33105,1.21l.002.002a6.304,6.304,0,0,1,3.10254,4.0332,23.97824,23.97824,0,0,0-2.28967-.98517c-.00592-.00214-.00995-.007-.016-.009l-.00952-.001a23.32942,23.32942,0,0,0-3.12622-.93164c-.539-.11792-1.18469-.23694-1.90179-.33582-.00873-.00043-.01611-.005-.025-.005l-.0036.00073a21.26034,21.26034,0,0,0-3.1214-.20093,11.62273,11.62273,0,0,0-2.70215.44922,9.87425,9.87425,0,0,1-2.65039.4209,14.15162,14.15162,0,0,1-1.49622-.13531c-.00916-.00049-.01691-.00531-.02625-.00531l-.00452.00092c-.30621-.04126-.61285-.08386-.91345-.12982a15.74629,15.74629,0,0,0-3.2959-.26953c-.24329.01141-.48584.04694-.729.07013A.47335.47335,0,0,0,8.499,9.71289a.49125.49125,0,0,0-.1615.03253,15.37,15.37,0,0,0-4.78674,1.31317,26.709,26.709,0,0,0-2.48437,1.29395C1.08008,12.25391,1.09473,12.15527,1.1123,12.05762ZM17.54688,26.28516q-.55151.046-1.10223.05121A16.41,16.41,0,0,1,2.55273,18.59766a10.25675,10.25675,0,0,1-1.38965-3.49219c.11548.15668.24384.32257.37622.49078.0202.02563.03674.04883.05731.07477.14789.186.3078.37915.47546.57587l.03375.04083a22.75361,22.75361,0,0,0,3.93872,3.62183.47438.47438,0,0,0,.05994.05432c.00983.00574.021.00568.031.01068.13116.09326.25726.189.39221.28021l.0022.00159q.4444.3002.91681.582l.03577.02271c.30542.1817.62091.3551.94287.52209.02295.0119.04419.02533.0672.03717.41779.21448.85339.40973,1.2981.59369.01135.00525.02277.009.03461.01343.27087.11139.5426.22162.82312.31976l.0307.012a15.438,15.438,0,0,0,3.2525.74048.47138.47138,0,0,0,.06744.01361l.01392-.00281a14.80607,14.80607,0,0,0,1.66772.10437h.001c.07129,0,.14355-.001.21484-.002a15.23427,15.23427,0,0,0,5.3504-1.06946c.0202-.00787.03876-.01776.0589-.02576.2962-.11755.58282-.24731.86737-.37933.01434-.00537.0274-.01135.04108-.018a19.11631,19.11631,0,0,0,3.50653-2.13965c.00653-.00623.0152-.00861.02142-.01526l.00214-.00342a25.49593,25.49593,0,0,0,5.15509-5.40088,9.85546,9.85546,0,0,1-.48047,1.80078A15.62968,15.62968,0,0,1,17.54688,26.28516Z"/></svg>