<svg xmlns="http://www.w3.org/2000/svg" enable-background="new 0 0 282.221 260.445" viewBox="0 0 282.221 260.445"><path d="M8.326 204.83l19.027 25.578-20.397 27.42H20.25L34 239.344l6.334 8.515c-.209-2.595.223-5.274 1.404-7.795.797-1.7 1.55-3.409 2.281-5.12l-3.373-4.535 9.663-12.991c2.362-8.113 4.007-16.32 4.923-24.587H5c-2.76 0-5 2.238-5 5v2c0 2.762 2.24 5 5 5H8.326zM34 232.83c-1.749 0-3.166-1.418-3.166-3.166 0-1.75 1.417-3.166 3.166-3.166 1.75 0 3.168 1.416 3.168 3.166C37.168 231.413 35.75 232.83 34 232.83zM34 221.473L21.621 204.83h24.758L34 221.473zM36.211 95.252c-1.717 2.162-3.225 4.361-4.426 6.696-1.165 2.357-2.186 4.811-2.238 8.155-.002 1.443.245 3.093.971 4.737 1.055 2.503 3.332 4.622 5.586 5.603 2.275 1.032 4.443 1.292 6.583 1.306 4.864-.05 10.126-1.402 17.34-4.041 7.171-2.661 16.14-6.725 27.489-12.607 2.392-1.24 3.888-3.521 4.234-6.001-5.206-.976-9.835-3.601-13.324-7.313-10.116 5.188-18.034 8.723-23.965 10.922-1.896.714-3.6 1.28-5.094 1.72 2.34-2.8 5.453-5.801 8.376-8.031.784-.604 1.55-1.143 2.277-1.622l1.923 1.142c-.932.568-1.961 1.28-2.979 2.064-.65.496-1.313 1.035-1.978 1.603 5.638-2.271 12.377-5.414 20.091-9.358-2.675-3.369-4.48-7.454-5.082-11.917-1.714-.381-3.428-.763-5.142-1.144-.175-.041-.372-.059-.565-.08-.768-.245-1.584-.379-2.432-.379-2.475.021-4.46.606-6.332 1.33-3.25 1.297-6.225 3.186-9.195 5.418-1.053.8-2.095 1.646-3.12 2.525C41.928 88.791 38.827 91.969 36.211 95.252z"/><path d="M44.453,241.339c-2.932,6.249-0.242,13.692,6.01,16.625c1.716,0.805,3.522,1.186,5.301,1.186
		c4.697,0,9.197-2.659,11.324-7.192c12.952-27.608,16.681-52.993,16.991-72.024c0.015-0.914,0.024-1.819,0.024-2.703
		c-0.001-3.466-0.113-6.697-0.295-9.68c2.339,2.157,6.186,6.084,9.91,11.554c5.875,8.639,11.414,20.738,11.422,36.388
		c-0.004,7.879-1.396,16.758-5.1,26.839c-2.385,6.48,0.934,13.663,7.413,16.048c1.424,0.524,2.882,0.772,4.315,0.772
		c5.09,0.001,9.872-3.132,11.733-8.186c4.668-12.67,6.643-24.596,6.639-35.473c0.006-22.459-8.356-39.993-16.548-51.595
		c-3.918-5.554-7.795-9.824-10.868-12.849c-6.781-20.773-3.744-32.382,3.543-45.305c1.986,1.566,4.485,3.382,7.435,5.214
		c7.753,4.786,18.724,9.829,31.741,9.864c4.596,0,9.418-0.655,14.291-2.192c4.215-1.326,6.555-5.816,5.23-10.031
		c-0.185-0.588-0.438-1.136-0.736-1.646l6.534-6.863c2.012,0.339,5.195-1.229,7.908-4.078c3.364-3.534,4.729-7.695,3.049-9.295
		c-1.372-1.306-9.721,6.957-11.846,10.922l-7.123,7.481c-2.037-1.874-4.988-2.643-7.816-1.751c-3.253,1.021-6.401,1.451-9.49,1.451
		c-8.676,0.035-17.098-3.584-23.308-7.457c-3.097-1.921-5.62-3.863-7.326-5.292c-0.189-0.158-0.364-0.307-0.534-0.452
		c-4.479,4.856-10.891,7.906-18.004,7.906c-0.861,0-1.711-0.046-2.549-0.133c-0.441,3.093-2.309,5.94-5.286,7.485
		c-11.072,5.738-20.137,9.894-27.716,12.704c-3.977,1.456-7.27,2.486-10.172,3.157c1.092,8.747,3.131,17.567,5.609,27.891
		c0.07,0.374,0.153,0.747,0.26,1.12v-0.002c0.197,0.734,2.449,9.521,2.664,23.336c0.012,0.707,0.021,1.415,0.021,2.147
		C59.098,193.6,56.211,216.27,44.453,241.339z M179.623,89.266c0.545,0.519-0.725,2.735-2.834,4.952
		c-2.111,2.216-4.263,3.593-4.807,3.074C171.438,96.773,179.078,88.747,179.623,89.266z"/><path d="M96.271,97.524c12.427,0,22.5-10.074,22.5-22.5c0-12.428-10.073-22.5-22.5-22.5s-22.5,10.072-22.5,22.5
		C73.771,87.45,83.845,97.524,96.271,97.524z M95.936,81.522c5.812,1.205,10.024,4.591,9.408,7.563
		c-0.616,2.973-5.827,4.406-11.64,3.202c-5.811-1.205-10.023-4.59-9.406-7.563C84.914,81.751,90.125,80.318,95.936,81.522z"/><path d="M105.948 47.756c.739.372 1.641.073 2.015-.665v-.002l5.143-10.216c.275-.547.194-1.202-.207-1.661-.402-.461-1.039-.632-1.619-.433l-9.143 3.136-1.381-16.27c-.055-.641-.508-1.173-1.131-1.328-.624-.155-1.275.1-1.624.641l-6.919 10.704-7.715-12.036c-.338-.53-.977-.794-1.592-.655-.613.139-1.079.647-1.158 1.273L78.92 33.506l-13.23-6.927c-.575-.3-1.279-.198-1.742.255-.465.451-.586 1.153-.301 1.734l6.705 13.657-11.408.414c-.626.022-1.168.428-1.369 1.022-.197.592-.01 1.245.477 1.639l7.541 6.142-11.967 5.17c-.598.259-.961.873-.898 1.522.063.649.537 1.181 1.176 1.32l13.611 2.954c.107.023.213.035.318.035.691 0 1.313-.48 1.465-1.181.176-.81-.336-1.608-1.146-1.786l-9.049-1.962 9.948-4.301c.481-.208.818-.649.89-1.169.074-.522-.131-1.038-.539-1.369l-6.363-5.183 9.736-.353c.504-.019.972-.294 1.232-.729.26-.435.281-.975.06-1.43l-5.703-11.616 11.075 5.799c.435.229.953.229 1.39.002.435-.226.732-.653.794-1.141l1.448-11.306 6.745 10.524c.275.431.75.689 1.262.689.51.002.983-.255 1.261-.683l5.801-8.978 1.173 13.815c.039.459.29.877.676 1.128.386.251.871.312 1.306.163l7.479-2.566-3.488 6.929C104.91 46.48 105.207 47.382 105.948 47.756zM277.221 162.292H132.852c-2.759 0-5 2.238-5 5v3c0 2.762 2.241 5 5 5h41.063l25.312 42.791-25.059 42.361h11.618l19.25-32.541 19.25 32.541h11.62l-25.061-42.363 25.312-42.789h41.063c2.762 0 5-2.238 5-5v-3C282.221 164.531 279.982 162.292 277.221 162.292zM205.036 221.529c-1.75 0-3.166-1.418-3.166-3.166 0-1.75 1.416-3.166 3.166-3.166s3.168 1.416 3.168 3.166C208.204 220.111 206.786 221.529 205.036 221.529zM205.036 208.263l-20.47-32.971h40.942L205.036 208.263zM195.777 160.113v-2.365c10.824-.764 18.5-2.577 18.5-4.01 0-.496-4.103-.86-10.125-1.093.019-.145.045-.288.045-.438 0-2.008-1.627-3.637-3.636-3.637-.653 0-1.258.187-1.788.488-.748-1.712-2.451-2.912-4.439-2.912-1.006 0-1.939.307-2.713.83-.971-1.062-2.352-1.738-3.904-1.738-2.057 0-3.819 1.184-4.698 2.896-.719-.542-1.604-.876-2.573-.876-.586 0-1.145.119-1.652.332-.879-.89-2.098-1.443-3.447-1.443-1.863 0-3.463 1.063-4.273 2.605-.344-.107-.701-.182-1.08-.182-2.008 0-3.636 1.629-3.636 3.637 0 .15.026.293.044.439-6.021.231-10.123.596-10.123 1.092 0 1.433 7.676 3.246 18.5 4.01v2.365H195.777zM170.642 149.872c-.087.361-.144.733-.144 1.121 0 .251.037.492.074.732.355-2.327 2.347-4.115 4.773-4.115.868 0 1.672.247 2.377.646-.854.707-1.42 1.729-1.529 2.896.773-1.132 2.071-1.876 3.545-1.876.967 0 1.849.331 2.566.87.852-1.44 2.406-2.417 4.201-2.417 1.309 0 2.492.522 3.371 1.358-.251.585-.392 1.229-.392 1.905 0 .251.037.492.073.732.355-2.327 2.349-4.115 4.775-4.115 2.427 0 4.418 1.788 4.773 4.115.037-.24.074-.481.074-.732 0-.384-.056-.753-.141-1.111.159-.026.319-.049.485-.049 1.573 0 2.851 1.213 2.979 2.754-10.045-.331-24.412-.331-34.457 0C168.167 151.175 169.25 150.052 170.642 149.872z"/><polygon points="238.7 160.113 241.498 132.306 238.514 132.008 238.512 132.006 237.822 138.863 229.068 138.863 229.068 141.113 237.596 141.113 235.986 157.111 224.506 157.111 222.896 141.113 224.256 141.113 224.256 138.863 222.671 138.863 221.98 132.006 218.995 132.308 221.791 160.113"/><polygon points="215.464 121.487 215.465 121.486 215.464 121.485"/><polygon points="226.844 154.041 228.834 153.848 226.465 129.656 216.879 120.071 215.465 121.486 224.547 130.567"/><path d="M133.027 44.641c.063-2.58.053-4.063-.025-4.445-.096-.481-.438-.877-1.021-1.18-.582-.303-1.148-.401-1.699-.293-.508.105-1.074.492-1.699 1.16-.621.668-.904 1.516-.848 2.543.059 1.024.1 1.613.131 1.767.305 1.524.432 3.888.377 7.087-.035 2.951.326 5.752 1.086 8.385.869.412 1.99.478 3.365.203.293-.831.35-1.738.184-2.719-.232-1.297-.279-3.085-.135-5.359C132.873 49.603 132.969 47.223 133.027 44.641zM134.314 65.139c-.063-.314-.492-.629-1.283-.941-.793-.314-1.422-.422-1.891-.326-.713.141-1.297.688-1.752 1.64-.449.948-.613 1.739-.486 2.372.338 1.679 1.262 2.362 2.775 2.059.506-.104 1.1-.477 1.77-1.119.672-.644.979-1.43.922-2.364L134.314 65.139zM157.98 45.752c.563-1.465.639-3.223.225-5.268l-.002-.021c-.4-1.853-.896-3.169-1.48-3.952-.59-.784-1.734-1.525-3.432-2.227-1.037-.449-2.318-.486-3.844-.107-.791.189-1.584.371-2.379.543-1.137.258-2.152.807-3.059 1.647l.018-.005c-1.088.91-1.939 1.912-2.555 3.015-.611 1.105-.846 2.021-.699 2.749.242 1.209.998 1.687 2.262 1.434 1.943-.391 2.873-1.215 2.805-2.475-.002-.373.223-.797.678-1.273.453-.48 1.424-.866 2.91-1.166.506-.104 1.035-.125 1.574-.061.541.063.924.174 1.139.338.221.166.52.622.891 1.378.375.756.607 1.365.699 1.832.135.659.105 1.36-.086 2.099-.197.742-.514 1.264-.955 1.564l-2.563 1.655c-1.621 1.042-2.711 1.788-3.273 2.247-.557.453-1.15 1.076-1.779 1.861-.494 1.871-.785 3.107-.873 3.704-.086.595-.066 1.22.064 1.864.121.605.35 1.162.682 1.676.334.512.691.73 1.076.65 1.18-.236 1.982-.578 2.412-1.021.424-.441.633-1.035.627-1.777.002-1.4.098-2.623.271-3.657 3.209-1.891 5.313-3.206 6.311-3.944C156.635 48.319 157.418 47.219 157.98 45.752zM148.242 62.914c-.764-.331-1.373-.453-1.812-.365-.631.127-1.098.371-1.395.73-.104.139-.242.294-.422.474-.947.976-1.357 1.781-1.232 2.414.154.769.584 1.352 1.275 1.739.693.389 1.475.5 2.338.325.826-.167 1.654-.652 2.484-1.46.834-.801 1.166-1.632.992-2.48C150.252 63.204 149.508 62.746 148.242 62.914zM25.471 103.971c.47-.288.619-.903.332-1.374-.289-.472-.903-.62-1.375-.333-2.868 1.718-3.836 4.091-3.809 6.03.016 2.338 1.172 4.011 1.217 4.098.193.287.51.441.831.441.192 0 .386-.055.558-.171.459-.31.58-.93.271-1.39 0 0-.036-.051-.118-.199-.251-.444-.762-1.557-.758-2.78C22.647 106.947 23.109 105.447 25.471 103.971z"/><path d="M22.707 100.466c.48-.272.652-.881.384-1.361-.268-.483-.878-.655-1.361-.384-4.681 2.583-6.088 6.224-6.056 9.141.011 3.119 1.405 5.415 1.446 5.497.188.313.521.488.86.488.174 0 .351-.045.512-.142.474-.285.628-.899.344-1.372v-.002c0 0-.057-.092-.164-.312-.328-.659-1.002-2.286-.996-4.158C17.707 105.527 18.578 102.815 22.707 100.466zM49.1 163.369c-.444-.327-1.068-.233-1.396.213-1.222 1.648-1.719 3.243-1.714 4.654.054 3.696 3.077 5.626 3.146 5.698.172.115.365.17.557.17.322 0 .639-.155.832-.443.306-.459.184-1.079-.275-1.386v-.002c0 0-.109-.072-.327-.259-.67-.568-1.95-1.959-1.932-3.778.002-.95.31-2.088 1.323-3.469C49.64 164.322 49.545 163.695 49.1 163.369z"/><path d="M45.269 161.161c-.433-.343-1.062-.273-1.404.16-2.068 2.586-2.857 5.061-2.853 7.221.045 5.075 4.055 7.997 4.123 8.076.18.134.391.199.6.199.305 0 .605-.139.801-.4.332-.442.242-1.069-.198-1.4h-.002c0 0-.178-.131-.492-.431-.962-.908-2.847-3.122-2.831-6.044.004-1.678.58-3.66 2.417-5.974C45.772 162.135 45.702 161.506 45.269 161.161zM180.789 80.43c-.553.033-.971.507-.936 1.06.033.551.508.97 1.061.936.238-.001 1.578.062 2.751.735 1.188.708 2.299 1.857 2.329 4.692.002.047 0 .104.002.172.005.55.451.991 1 .991.002 0 .006 0 .008 0 .553-.004.996-.454.992-1.007-.002-.045-.002-.096-.002-.156.033-3.433-1.625-5.496-3.344-6.434-1.71-.958-3.381-.987-3.753-.991C180.844 80.426 180.808 80.428 180.789 80.43z"/><path d="M191.383 88.592c.018.001.035.001.053.001.528 0 .971-.416.998-.949.014-.313.024-.62.024-.923.03-5.111-2.501-8.007-4.99-9.362-2.481-1.378-4.854-1.427-4.941-1.435-.553-.012-1.011.424-1.025.977-.013.553.424 1.011.976 1.023 0 0 .459.008 1.225.165 2.348.551 6.717 2.026 6.757 8.632 0 .262-.008.537-.022.821C190.407 88.094 190.833 88.563 191.383 88.592zM128.559 95.349c.004 0 .008 0 .012 0 .553-.004.996-.455.992-1.008 0-.045 0-.096 0-.156.032-3.434-1.627-5.497-3.346-6.433-1.709-.956-3.381-.987-3.754-.992-.051 0-.088.002-.107.002-.552.035-.972.51-.938 1.061.035.551.511.971 1.063.936.24-.003 1.58.063 2.75.733 1.189.709 2.299 1.858 2.332 4.691 0 .049-.002.104 0 .172C127.566 94.906 128.012 95.349 128.559 95.349z"/><path d="M132.947 94.926c.018.001.035.002.053.002.529 0 .971-.416.999-.95.017-.315.024-.625.024-.924.031-5.113-2.504-8.008-4.99-9.362-2.48-1.378-4.853-1.428-4.941-1.434-.553-.014-1.012.422-1.023.975-.015.551.422 1.01.975 1.024 0 0 .459.008 1.225.164 2.346.551 6.715 2.028 6.756 8.632-.002.262-.008.537-.021.819C131.971 94.425 132.395 94.896 132.947 94.926zM274.167 41.208C274.167 18.449 255.718 0 232.959 0c-22.756 0-41.209 18.449-41.209 41.208 0 15.507 8.571 29.007 21.229 36.04l-23.645 62.751 32.512-59.112c3.537.989 7.262 1.529 11.113 1.529C255.718 82.416 274.167 63.966 274.167 41.208zM231.639 77.132c-18.965 0-34.342-15.374-34.342-34.34 0-18.966 15.377-34.341 34.342-34.341 18.965 0 34.342 15.375 34.342 34.341C265.98 61.758 250.603 77.132 231.639 77.132z"/><path d="M251.656,48.136l4.939,1.081c1.133-3.666,1.467-7.476,0.75-10.512c-2.841-0.484-5.311-0.605-5.311-0.605l4.381-1.929
		c-3.656-7.399-9.743-5.022-16.17-7.56c-2.703,2.373-4.975,5.178-4.975,5.178l1.344-6.112c-7.351-1.195-18.131,0.054-18.131,0.054
		s-10.438,1.205-10.548,2.19c-0.109,0.985,9.087,0.438,9.087,0.438s-12.299,3.424-10.875,5.183
		c1.671,2.066,5.021,3.324,11.566,5.034c-3.378,0.421-8.069,0.705-11.784-0.214c-5.961-1.475,4.427,4.024,15.236,1.09
		c0.126,0.031,0.25,0.062,0.377,0.094c-3.146,1.354-8.25,3.232-12.559,3.316c-6.093,0.119,5.145,2.698,14.777-2.77
		c8.078,1.977,10.289,2.301,13.846-0.709c0,0,0.268-2.032,4.229-0.272c-2.225,1.256-4.589,3.295-4.994,6.403
		c2.984-1.658,4.588-2.452,6.113-2.878c-1.113,1.632-1.977,3.751-1.323,6.007c1.893-2.48,2.855-3.6,4.003-4.451
		c-0.301,3.646-3.648,7.817-3.648,7.817l-18.723-2.627l3.066,5.146c0,0,6.643,4.89,16.825,5.657
		c5.448,0.41,9.995-4.468,12.495-10.366C253.619,49.72,251.656,48.136,251.656,48.136z M220.105,30.578
		c0.855,0,1.549,0.662,1.549,1.478c0,0.817-0.693,1.479-1.549,1.479c-0.855,0-1.549-0.662-1.549-1.479
		C218.557,31.239,219.25,30.578,220.105,30.578z M226.439,52.767l14.964,2.973l-0.438,1.187l-14.307-3.764L226.439,52.767z
		 M241.299,60.785l-13.76-5.43l-0.171-0.419l14.507,4.721L241.299,60.785z"/></svg>