<svg xmlns="http://www.w3.org/2000/svg" width="26" height="26" viewBox="0 0 26 26"><path d="M 13 0 C 5.82629 0 9.8e-005 5.8263 0 13 C -7.4e-005 20.1739 5.826169 26 13 26 C 20.173831 26 26.000074 20.1739 26 13 C 25.999902 5.8263 20.17371 0 13 0 z M 13 1.0019531 C 19.633243 1.0019531 24.999909 6.3668 25 13 C 25.000068 19.6334 19.633355 25 13 25 C 6.366645 25 0.999932 19.6334 1 13 C 1.000091 6.3668 6.366757 1.0019531 13 1.0019531 z M 14.076172 5 C 12.699467 5 11.138359 5.2428812 9.8652344 5.9882812 C 8.59211 6.7335813 7.6328125 8.0507187 7.6328125 9.9492188 C 7.6328125 10.962919 7.5467065 11.266309 7.375 11.599609 C 7.2032931 11.932909 6.8671515 12.361525 6.4628906 13.328125 A 0.50005006 0.50005006 0 0 0 6.9238281 14.019531 L 7.9414062 14.019531 C 7.9406932 14.143231 7.941825 14.194809 7.9394531 14.412109 A 0.50005006 0.50005006 0 0 0 7.9394531 14.421875 L 7.9394531 16.044922 C 7.9394531 16.514122 7.8754611 16.983988 8.2011719 17.429688 C 8.3640274 17.652488 8.6195806 17.808878 8.9042969 17.892578 C 9.1890132 17.976578 9.5150715 18.005859 9.9277344 18.005859 C 10.214174 18.006059 10.676816 18.005859 11.076172 18.005859 L 11.076172 20.5 A 0.50005006 0.50005006 0 0 0 11.576172 21 L 17.115234 21 A 0.50005006 0.50005006 0 0 0 17.615234 20.5 L 17.615234 17.001953 C 17.615234 15.345053 18.045189 14.568162 18.529297 13.726562 C 18.991824 12.922462 19.498209 12.003981 19.544922 10.550781 A 0.50005006 0.50005006 0 0 0 19.576172 10.376953 C 19.576169 7.1750531 16.952908 5.0019531 14.076172 5.0019531 L 14.076172 5 z M 14.076172 5.9921875 L 14.076172 5.9960938 C 16.460568 5.9960938 18.576169 7.7077938 18.576172 10.371094 C 18.576172 11.725994 18.158187 12.360256 17.662109 13.222656 C 17.166032 14.085156 16.615234 15.152494 16.615234 16.996094 L 16.615234 19.994141 L 12.076172 19.994141 L 12.076172 17.5 A 0.50005006 0.50005006 0 0 0 11.576172 17 L 9.9277344 17 C 9.5696273 17 9.3245543 16.968734 9.1855469 16.927734 C 9.0465394 16.886734 9.0264901 16.856984 9.0097656 16.833984 C 8.9763166 16.787984 8.9394531 16.526463 8.9394531 16.039062 L 8.9394531 14.421875 L 8.9394531 14.410156 C 8.9438931 14.004656 8.9458094 13.781731 8.9433594 13.644531 C 8.9421294 13.575531 8.9434582 13.534425 8.9296875 13.453125 C 8.9227975 13.412125 8.9225376 13.356047 8.8535156 13.248047 C 8.7844946 13.139647 8.5566596 13.011719 8.4238281 13.011719 L 7.7519531 13.011719 C 7.9251508 12.703519 8.124245 12.319528 8.2636719 12.048828 C 8.5034199 11.583428 8.6328125 11.024506 8.6328125 9.9414062 C 8.6328125 8.3602062 9.330348 7.45315 10.371094 6.84375 C 11.41184 6.23445 12.822317 5.9921875 14.076172 5.9921875 z M 13.923828 6.9960938 L 13.923828 6.9980469 C 13.031431 6.9880469 11.923159 7.1104687 11.013672 7.5429688 C 10.558928 7.7591688 10.143538 8.0622531 9.875 8.5019531 C 9.6064621 8.9415531 9.5162961 9.5081281 9.65625 10.111328 C 9.8004539 10.732828 10.24449 11.167944 10.722656 11.277344 C 11.200823 11.386644 11.648918 11.289609 12.082031 11.224609 C 12.515145 11.159609 12.9287 11.112175 13.267578 11.171875 C 13.606457 11.231875 13.876855 11.364338 14.158203 11.773438 C 14.45838 12.209938 14.807719 12.515722 15.203125 12.669922 C 15.598531 12.824122 16.037503 12.802253 16.396484 12.626953 C 17.114447 12.276353 17.526842 11.450759 17.599609 10.443359 C 17.675109 9.3981594 17.213206 8.5002563 16.509766 7.9101562 C 15.806325 7.3201563 14.873914 7.0033937 13.923828 6.9960938 z M 13.916016 8 C 14.64506 8.01 15.367722 8.2606875 15.867188 8.6796875 C 16.366656 9.0985875 16.653973 9.6494 16.601562 10.375 C 16.546412 11.1384 16.212722 11.607522 15.957031 11.732422 C 15.829185 11.794422 15.722499 11.803187 15.566406 11.742188 C 15.410312 11.681188 15.200575 11.526184 14.982422 11.208984 C 14.565011 10.601984 13.993125 10.289106 13.443359 10.191406 C 12.893593 10.093406 12.374631 10.174234 11.933594 10.240234 C 11.492558 10.306234 11.122422 10.346187 10.945312 10.304688 C 10.768204 10.264688 10.718675 10.265719 10.630859 9.8867188 C 10.538789 9.4899188 10.595006 9.2439906 10.728516 9.0253906 C 10.862027 8.8067906 11.106101 8.6057125 11.443359 8.4453125 C 12.117875 8.1246125 13.129283 7.994 13.916016 8 z " color="#000" font-family="sans-serif" font-weight="400" overflow="visible" white-space="normal" style="line-height:normal;text-indent:0;text-align:start;text-decoration-line:none;text-decoration-style:solid;text-decoration-color:#000;text-transform:none;block-progression:tb;isolation:auto;mix-blend-mode:normal"/></svg>